<?xml version="1.0" encoding="utf-8"?>
<!-- Generator: Adobe Illustrator 16.0.4, SVG Export Plug-In . SVG Version: 6.00 Build 0)  -->
<!DOCTYPE svg PUBLIC "-//W3C//DTD SVG 1.1//EN" "http://www.w3.org/Graphics/SVG/1.1/DTD/svg11.dtd">
<svg version="1.1" xmlns="http://www.w3.org/2000/svg" xmlns:xlink="http://www.w3.org/1999/xlink" x="0px" y="0px" width="1024px"
	 height="300px" viewBox="0 0 1024 300" enable-background="new 0 0 1024 300" xml:space="preserve">
<g id="background">
	<rect x="0.5" y="-0.5" fill="#8AAFE8" stroke="#8AAFE8" stroke-miterlimit="10" width="1023" height="300"/>
</g>
<g id="guide">
</g>
<g id="line_x5F_original" display="none">
	<g display="inline" opacity="0.5">
		<g>
			<path fill="#FFFFFF" d="M-0.5,154.5c26-6.1,47.2-23.1,71.2-34c25.7-11.6,55.3-11.8,82.6-6.4c14.1,2.8,27.8,7.5,40.8,13.8
				c12.2,5.9,23.5,13.6,35,20.7c11.4,7.1,23.1,13.6,35.9,17.7c14.2,4.5,28.9,4.1,43.4,1.4c31.6-5.8,61-21.3,90.6-33.2
				c30.2-12.2,60.9-18.5,93.6-16.6c31.8,1.9,61.9,11.1,89.9,26c27.6,14.7,54.6,32.3,86.5,35.9c62.9,7.1,115.2-39.7,173.9-52.8
				c29.7-6.6,60.9-3.6,89.6,5.6c15.1,4.8,29.4,11.5,44.6,16c15.3,4.5,31.2,6.8,47.1,6.1c-0.9,0-2.4-9.4-3.4-9.4
				c-16,0.7-31.7-1.7-47.1-6.1c-15.2-4.3-29.6-11-44.6-16c-29.4-9.7-61.1-12-91.4-5.3c-59.8,13.3-111.4,60.4-175.7,51.9
				c-31.5-4.1-58.8-22.8-86.3-37.3c-28-14.8-58.7-22.8-90.3-24.4c-32.7-1.7-63.2,5.9-93.3,18.2c-29.7,12.1-59,27.1-90.8,32.5
				c-13.9,2.4-27.7,1.7-41.1-2.6c-12.8-4-24.5-11-35.8-18.1c-11.6-7.2-22.9-14.7-35.2-20.6c-13-6.2-26.9-10.6-41-13.4
				c-26.8-5.3-55.6-4.4-80.9,6.7c-24.2,10.6-45.1,27.9-71.2,34C-3.6,145.1-1,154.6-0.5,154.5L-0.5,154.5z"/>
		</g>
	</g>
	<g display="inline" opacity="0.3">
		<g>
			<path fill="#FFFFFF" d="M-6.7,101.6c21.6-0.5,39,13.1,54.1,27c15.9,14.5,30.7,31.4,50.4,40.6c19.8,9.3,41.7,1.2,59.2-9.2
				c20-11.9,37.2-28,55.5-42.3c16.5-12.9,34.6-23,55.4-26.6c19.4-3.3,39.3-0.1,57.9,5.6c38.4,11.9,72.8,34.7,112.2,43.6
				c19.2,4.3,38.9,4.1,57.6-2.3c12.2-4.1,23.4-10.9,34.9-16.5c12-5.8,24.3-11.1,37-15.2c27.1-8.8,55.4-10.1,83.3-4.8
				c26.4,5,51,15.9,73.9,29.7c24.1,14.5,46.5,34.1,74.5,40.6c21.4,5,44.2-0.3,63.5-9.6c37.4-18,65.2-50.5,100.8-71.3
				c17.3-10.1,36.5-16.6,56.7-16.4c0.8,0,3.1-3,3.6-3.5c0.5-0.5,2.8-3.6,3.5-3.6c-42.3-0.5-75.5,28.1-106.6,53
				c-32.4,26-70.4,53.4-114.4,44.2c-27.9-5.8-50.8-26.2-74.5-40.6C709,110.3,684.4,99.7,658,94.5c-27.9-5.5-56.2-3.7-83.3,4.8
				c-12.7,4-25,9.5-37,15.2c-11.6,5.5-22.8,12.2-34.9,16.5c-38.8,13.7-78.3-2.3-113.7-18.2C353.3,96.7,315.4,77.6,275,84.1
				c-44.9,7.2-73.9,46.4-110.9,68.9c-17.7,10.7-39.3,18.1-59.2,9.2c-19.8-8.8-34.8-26.3-50.4-40.6c-15.1-13.9-32.6-27.4-54.1-27
				c-0.8,0-3,3-3.6,3.5C-3.7,98.5-6,101.6-6.7,101.6L-6.7,101.6z"/>
		</g>
	</g>
	<g display="inline" opacity="0.3">
		<g>
			<path fill="#FFFFFF" d="M-3.5,237.6c50.7,14.2,99.7-19.9,143.1-41c22.4-10.9,46.2-17.9,71.1-19.8c24.6-1.9,49.2,1.4,73.2,6.7
				c47.7,10.4,93.6,29.2,142.5,33.4c25.1,2.2,50.1-0.5,74.1-8.2c25.8-8.3,51.7-16.4,78.4-21.2c56.7-10.1,115.1-3,169.3,15.6
				c26,8.9,50.6,21.4,76.8,29.9c25,8.1,50.6,10,76.4,5.2c27.6-5.2,54.2-15.4,79.7-26.8c13.3-5.9,26.6-12.3,39.3-19.4
				c2.8-1.6,4.3-5.5,7-7.1c-26.4,14.8-54.6,27.1-83.3,36.7c-20.7,6.9-42.6,12.6-64.6,12.4c-29.6-0.2-57.4-10.5-84.2-22.1
				c-52-22.5-106.9-37.3-164-35.9c-27.6,0.7-54.7,5.5-81.2,12.7c-25.8,7-50.8,17.5-77.4,20.7c-49,5.9-96.9-9.9-143.4-23
				c-48-13.5-97.4-23.8-146.7-10.6c-30.6,8.2-57.6,25.6-86,39c-28.7,13.5-61.5,24.7-93.2,15.8C1.9,230-2,238-3.5,237.6L-3.5,237.6z"
				/>
		</g>
	</g>
</g>
<g id="line_x5F_path">
	<path opacity="0.5" fill="#FFFFFF" d="M0,168.7c0,0,45.7-34.5,69-50.4c25.8-17.5,55.6-17.8,83-9.6c14.2,4.2,28,11.4,41,20.8
		c12.3,8.9,23.6,20.5,35.2,31.3c11.4,10.7,23.2,20.6,36.1,26.7c14.3,6.8,29,6.2,43.6,2.1c31.8-8.8,61.3-32.1,91-50.2
		c30.4-18.5,61.2-28,94.1-25c31.9,2.9,62.2,16.8,90.3,39.3c27.8,22.2,54.9,48.8,86.9,54.2c63.2,10.8,115.7-60,174.7-79.7
		c29.8-10,61.2-5.4,90.1,8.5c15.1,7.3,29.5,17.4,44.8,24.1c15.4,6.7,28.4,11.1,44.4,10c-0.9,0.1,0.5-15.1-0.6-15
		c-16.1,1.1-31.9-2.6-47.3-9.2c-15.3-6.5-29.7-16.7-44.8-24.1c-29.5-14.6-61.4-18.1-91.8-7.9c-60.1,20.1-111.9,91.3-176.5,78.5
		c-31.6-6.3-59.1-34.4-86.7-56.3c-28.2-22.3-59-34.4-90.8-36.9c-32.8-2.6-63.5,9-93.7,27.5c-29.8,18.3-59.3,40.9-91.3,49
		c-14,3.6-27.8,2.5-41.3-3.9c-12.8-6.1-24.6-16.7-36-27.3c-11.6-10.8-23-22.2-35.3-31.1c-13-9.4-27-16-41.2-20.2
		c-27-8-55.9-6.6-81.3,10.1C43.1,119,0,153.1,0,153.1V168.7z"/>
	<path opacity="0.3" fill="#FFFFFF" d="M0,90c0,0,33.9,14.3,47.5,26.6c15.9,14.5,30.7,31.4,50.5,40.6c19.8,9.3,41.8,1.2,59.4-9.2
		c20.1-11.9,37.3-28,55.6-42.3c16.5-12.9,34.7-23,55.5-26.6c19.5-3.3,39.3-0.1,58,5.6c38.5,11.9,73,34.7,112.5,43.6
		c19.2,4.3,39,4.1,57.8-2.3c12.2-4.1,23.5-10.9,35-16.5c12-5.8,24.3-11.1,37.1-15.2c27.1-8.8,55.5-10.1,83.5-4.8
		c26.5,5,51.1,15.9,74.1,29.7c24.2,14.5,46.6,34.1,74.7,40.6c21.4,5,44.3-0.3,63.7-9.6c37.5-18,65.4-50.5,101-71.3
		c17.3-10.1,37.8-16.9,58-16.7V55c-42.4-0.5-69.8,28.6-101,53.6c-32.5,26-70.6,53.4-114.7,44.2c-27.9-5.8-50.9-26.2-74.7-40.6
		c-23-13.9-47.7-24.4-74.1-29.7c-28-5.5-56.3-3.7-83.5,4.8c-12.8,4-25,9.5-37.1,15.2c-11.6,5.5-22.8,12.2-35,16.5
		c-38.9,13.7-78.5-2.3-114-18.2c-35.8-16.1-73.8-35.2-114.3-28.7c-45.1,7.2-74,46.4-111.2,68.9c-17.7,10.7-39.4,18.1-59.4,9.2
		c-19.8-8.8-34.9-26.3-50.5-40.6c-15.1-13.9-54.3-27-54.3-27L0,90z"/>
	<path opacity="0.3" fill="#FFFFFF" d="M0,198.9c81-0.3,95.7-17.6,137.6-42.3c21.5-12.7,46.2-17.9,71.1-19.8
		c24.6-1.9,49.2,1.4,73.2,6.7c47.7,10.4,93.6,29.2,142.5,33.4c25.1,2.2,50.1-0.5,74.1-8.2c25.8-8.3,51.7-16.4,78.4-21.2
		c56.7-10.1,115.1-3,169.3,15.6c26,8.9,50.6,21.4,76.8,29.9c25,8.1,50.6,10,76.4,5.2c27.6-5.2,54.2-15.4,79.7-26.8
		c13.3-5.9,32.1-12.2,44.8-19.4v-6.2c-26.4,14.8-53.1,26.2-81.8,35.8c-20.7,6.9-42.6,12.6-64.6,12.4c-29.6-0.2-57.4-10.5-84.2-22.1
		c-52-22.5-106.9-37.3-164-35.9c-27.6,0.7-54.7,5.5-81.2,12.7c-25.8,7-50.8,17.5-77.4,20.7c-49,5.9-96.9-9.9-143.4-23
		c-48-13.5-97.4-23.8-146.7-10.6c-30.6,8.2-57.6,25.6-86,39C66.1,188.2,0,191.3,0,191.3L0,198.9z"/>
</g>
</svg>
