<?xml version="1.0" encoding="utf-8"?>
<!-- Generator: Adobe Illustrator 16.0.4, SVG Export Plug-In . SVG Version: 6.00 Build 0)  -->
<!DOCTYPE svg PUBLIC "-//W3C//DTD SVG 1.1//EN" "http://www.w3.org/Graphics/SVG/1.1/DTD/svg11.dtd">
<svg version="1.1" xmlns="http://www.w3.org/2000/svg" xmlns:xlink="http://www.w3.org/1999/xlink" x="0px" y="0px" width="1024px"
	 height="293.1px" viewBox="0 0 1024 293.1" enable-background="new 0 0 1024 293.1" xml:space="preserve">
<g id="back">
	<rect fill="#8AAFE8" width="1024" height="293"/>
</g>
<g id="cloud-sample" display="none">
	<path display="inline" opacity="9.999999e-02" fill="#FFFFFF" stroke="#FFFFFF" stroke-miterlimit="10" d="M176,64
		c1.7-33.3,65.7-36.7,68.3,1.7c24.4,1.5,45.6,7.9,51.3,36.6c3.5,17.5-7.1,36.1-27.3,38c-1.1,22.4-27.6,36-43,35.7
		c-18.4-0.4-33-2.2-43.8-23.8c-37.5,6.1-53.4-14.4-53.5-39.2C127.8,87.9,151.5,62.4,176,64"/>
	<path display="inline" opacity="9.999999e-02" fill="#FFFFFF" stroke="#FFFFFF" stroke-miterlimit="10" d="M810.7,118.7
		c7.7-23.3,35.5-28.8,50.6-23.5c20.9,7.3,22.9,35.4,17.9,53.4c16.5,2.3,21.1,34,11.4,46.6c-18.1,23.5-52.2,8.8-52.2,8.8
		s-4.5,11.5-21.7,19c-25,11-56.4-2.7-56-31.7c-43.2,1-40.1-70-8.2-84.8C778,94.7,793.8,98.6,810.7,118.7"/>
	<path display="inline" opacity="9.999999e-02" fill="#FFFFFF" stroke="#FFFFFF" stroke-miterlimit="10" d="M535,72
		c5.2-21.4,34.1-28,48-12.7c5.4-16,39.1-16.6,46.4-1.6c12.6-3.6,29.8-2.8,37.6,5.6c10.3,11,0.4,30.7,0.4,30.7s13.3,19.1-8.1,43.7
		c-8,9.2-35.3,18.7-46.4,11.2c-8.9,37.8-49.4,35.7-75.6,19.2c-5.2-3.3-10.3-11.7-10.3-11.7s-7,5-17.6,3.6c-8.3-1.1-21.2-6.7-27-13.4
		C445.7,103.4,497,71.1,535,72"/>
	<path display="inline" opacity="9.999999e-02" fill="#FFFFFF" stroke="#FFFFFF" stroke-miterlimit="10" d="M409,135
		c5.4,14.1,0.3,41-20.7,46.9c-33,9.3-43.8-15.4-43.6-14.9c0,0-27-15.3-1-32.3c-2.9-26,20.8-29.8,36.3-14.7
		C380,120,402.3,117.6,409,135z"/>
</g>
<g id="cloud">
	<path opacity="0.3" fill="#FFFFFF" d="M315.1,186.4c-15.1,1.4-25.4-14-18.9-29.9c5.6-13.9,27-19.4,41.3-4.6
		c15.9-25.4,52.7,6.3,28.9,22.6c10.8,19.4-8.1,32.1-22.7,35c-6.6,1.3-14-0.2-19.7-4.6C316,198.8,315.1,186.4,315.1,186.4"/>
	<path opacity="0.3" fill="#FFFFFF" d="M81.3,69.7c5.1-34.7,46.4-30.8,58.2-16.4c18.8-25.7,69.4-8.2,68.4,26.5
		c28.5,6.1,28.4,18.9,28.5,26.4c0.1,6.6-8.2,25-32.2,25.9c0,0,5.6,12.7-8.2,24.2c-12.1,10-37.6,12.9-54.2,8.2
		c-8.8-2.5-15.5-7.2-20.3-13.8c-0.9,4.6-13.7,8-18.4,9.1c-7.9,1.7-16.7,2.3-24.1-1.3c-13.5-6.5-18.7-16-19.3-28.5
		c-13-5.1-21.6-13.8-21.6-25.5C38.3,79.3,73.2,69.8,81.3,69.7"/>
	<path opacity="0.3" fill="#FFFFFF" d="M428.8,94c-24.6-14.1,6.4-52.8,37.6-33.1c9.5-12,33.9-14.1,44.6-4.4
		c18.5,16.8,9.3,33.5,9.3,33.5c13.1,2.8,17.9,15.6,17.4,26.1c-0.6,16-22.9,22.7-39.8,22.7c-10.4,27.5-57.2,20.3-54.7-4.7
		C421.2,136.6,413.5,105.9,428.8,94"/>
	<path opacity="0.3" fill="#FFFFFF" d="M625,150.3c-1.2-8.3,5.8-19.5,13.5-23.9c10.5-6,26.5-7.7,36.6,0.3c1.2-9,19.1-14.4,26.6-13
		c8.9,1.6,17.8,9.3,20.7,14.4c0,0,15.2-7.6,28.4,0.6c14.5,8.9,13.5,17.3,14.4,23.6c10.6,1,20.3,11.9,20.4,22.2
		c0.1,6-6.1,16.1-16,22.6c-10.2,6.7-42.1,17.5-59.1,1.1c-12.4,7.3-31.3,8.6-41.6,7.6c-13-1.3-25.5-3.8-33.8-13.3
		C605.6,203.4,602.7,147.8,625,150.3"/>
	<path opacity="0.3" fill="#FFFFFF" d="M845.6,99.6c-4-23.5,25.3-46.7,49.1-28.7c14.4-22.9,57.2-9.7,54.6,17.9
		c21.9-1.2,30.8,24,17.8,39.2c-10.1,11.8-31.7,13.6-46.3,9.1c-7,8-17.4,11.8-28.8,10.4c-16.5-2.1-18.7-11.5-19.7-11.8
		c0,0-7.5,4.7-15.8,3.4c-4.8-0.8-14.5,0.3-19.6-11.5C833.1,118.7,836.8,102.5,845.6,99.6"/>
</g>
</svg>
