<?xml version="1.0" encoding="utf-8"?>
<!-- Generator: Adobe Illustrator 16.0.4, SVG Export Plug-In . SVG Version: 6.00 Build 0)  -->
<!DOCTYPE svg PUBLIC "-//W3C//DTD SVG 1.1//EN" "http://www.w3.org/Graphics/SVG/1.1/DTD/svg11.dtd">
<svg version="1.1" xmlns="http://www.w3.org/2000/svg" xmlns:xlink="http://www.w3.org/1999/xlink" x="0px" y="0px" width="522px"
	 height="219.8px" viewBox="0 0 522 219.8" enable-background="new 0 0 522 219.8" xml:space="preserve">
<g id="レイヤー_1">
</g>
<g id="title">
</g>
<g id="mori" display="none">
	<path display="inline" fill="#FFDD58" d="M113.9,70.5c1.4-2.9,2.2-6.2,2.2-9.7c0-11.9-9.4-21.5-21.1-21.5c-0.1,0-0.3,0-0.4,0
		c-0.1-12-9.6-21.7-21.4-21.7c-11.8,0-21.3,9.7-21.4,21.7c-11.4,0.3-20.5,9.8-20.5,21.5c0,3.3,0.7,6.5,2.1,9.3
		c-9.6,4-16.3,13.7-16.3,24.9c0,14.9,11.8,27,26.4,27c4.8,0,9.2-1.3,13.1-3.5c2.3,1,4.6,1.8,7.1,2.4c-0.2,8.4-2,24-11.3,38.3h43.1
		c0,0-10.1-16.5-11.6-38.2c2.3-0.5,4.6-1.2,6.7-2.1c3.7,2,7.9,3.2,12.5,3.2c14.6,0,26.4-12.1,26.4-27
		C129.5,84.2,123.1,74.7,113.9,70.5z"/>
	<path display="inline" fill="#FFDD58" d="M207.7,118.7c0-21.8-7.4-54.2-14.9-54.2c-7.5,0-15.2,33.2-15.2,55
		c0,19.7,6.3,23.4,13.1,23.9c0,4.6-0.2,16.2-2.5,26.8h9.6c0,0-2.5-11.6-2.6-26.8C201.7,142.8,207.7,138.8,207.7,118.7z"/>
	<path display="inline" fill="#FFDD58" d="M267.7,125.7c0-21.8-7.4-54.2-14.9-54.2c-7.5,0-15.2,33.2-15.2,55
		c0,19.7,6.3,23.4,13.1,23.9c0,4.6-0.2,16.2-2.5,26.8h9.6c0,0-2.5-11.6-2.6-26.8C261.7,149.8,267.7,145.8,267.7,125.7z"/>
	<path display="inline" fill="#FFDD58" d="M325.7,131.7c0-21.8-7.4-54.2-14.9-54.2c-7.5,0-15.2,33.2-15.2,55
		c0,19.7,6.3,23.4,13.1,23.9c0,4.6-0.2,16.2-2.5,26.8h9.6c0,0-2.5-11.6-2.6-26.8C319.7,155.8,325.7,151.8,325.7,131.7z"/>
	<path display="inline" fill="#FFDD58" d="M384.7,138.7c0-21.8-7.4-54.2-14.9-54.2c-7.5,0-15.2,33.2-15.2,55
		c0,19.7,6.3,23.4,13.1,23.9c0,4.6-0.2,16.2-2.5,26.8h9.6c0,0-2.5-11.6-2.6-26.8C378.7,162.8,384.7,158.8,384.7,138.7z"/>
	<path display="inline" fill="#FFDD58" d="M445.7,144.7c0-21.8-7.4-54.2-14.9-54.2c-7.5,0-15.2,33.2-15.2,55
		c0,19.7,6.3,23.4,13.1,23.9c0,4.6-0.2,16.2-2.5,26.8h9.6c0,0-2.5-11.6-2.6-26.8C439.7,168.8,445.7,164.8,445.7,144.7z"/>
	<path display="inline" fill="#FFDD58" d="M189,297.8c0-19.6-7.5-48.7-15.1-48.7s-15.5,29.9-15.5,49.5c0,17.7,6.4,21,13.3,21.5
		c0.1,6.8,0.1,32.1-2.6,55.2h9.8c0,0-2.6-24.2-2.7-55.2C183,319.4,189,315.8,189,297.8z"/>
</g>
<g id="mori2">
	<path fill="#FFDD58" d="M208,112.8c0-19.6-7.5-48.7-15.1-48.7c-7.6,0-15.5,29.9-15.5,49.5c0,17.7,6.4,21,13.3,21.5
		c0.1,6.8,0.1,32.1-2.6,55.2h9.8c0,0-2.6-24.2-2.7-55.2C202,134.4,208,130.8,208,112.8z"/>
	<path fill="#FFDD58" d="M268,119.8c0-19.6-7.5-48.7-15.1-48.7c-7.6,0-15.5,29.9-15.5,49.5c0,17.7,6.4,21,13.3,21.5
		c0.1,6.8,0.1,32.1-2.6,55.2h9.8c0,0-2.6-24.2-2.7-55.2C262,141.4,268,137.8,268,119.8z"/>
	<path fill="#FFDD58" d="M326,125.8c0-19.6-7.5-48.7-15.1-48.7c-7.6,0-15.5,29.9-15.5,49.5c0,17.7,6.4,21,13.3,21.5
		c0.1,6.8,0.1,32.1-2.6,55.2h9.8c0,0-2.6-24.2-2.7-55.2C320,147.4,326,143.8,326,125.8z"/>
	<path fill="#FFDD58" d="M113.8,70c1.4-2.9,2.2-6.1,2.2-9.6c0-11.8-9.4-21.4-21-21.4c-0.1,0-0.3,0-0.4,0
		c-0.1-11.9-9.6-21.6-21.3-21.6c-11.7,0-21.2,9.7-21.3,21.6c-11.3,0.3-20.3,9.8-20.3,21.4c0,3.3,0.7,6.5,2.1,9.3
		c-9.5,4-16.2,13.6-16.2,24.8c0,14.8,11.7,26.8,26.2,26.8c4.7,0,9.2-1.3,13-3.5c2.2,1,4.6,2.3,7.1,2.9c0.1,13-0.8,44.6-11.3,74.6
		h42.8c0,0-10.9-33-11.7-74.5c2.4-0.5,4.6-1.5,6.8-2.4c3.7,2,7.9,3,12.4,3c14.5,0,26.2-12.1,26.2-26.9
		C129.3,83.6,122.9,74.2,113.8,70z"/>
	<path fill="#FFDD58" d="M385,132.8c0-19.6-7.5-48.7-15.1-48.7c-7.6,0-15.5,29.9-15.5,49.5c0,17.7,6.4,21,13.3,21.5
		c0.1,6.8,0.1,32.1-2.6,55.2h9.8c0,0-2.6-24.2-2.7-55.2C379,154.4,385,150.8,385,132.8z"/>
	<path fill="#FFDD58" d="M446,138.8c0-19.6-7.5-48.7-15.1-48.7c-7.6,0-15.5,29.9-15.5,49.5c0,17.7,6.4,21,13.3,21.5
		c0.1,6.8,0.1,32.1-2.6,55.2h9.8c0,0-2.6-24.2-2.7-55.2C440,160.4,446,156.8,446,138.8z"/>
</g>
<g id="base" display="none">
</g>
</svg>
