<?xml version="1.0" encoding="utf-8"?>
<!-- Generator: Adobe Illustrator 16.0.4, SVG Export Plug-In . SVG Version: 6.00 Build 0)  -->
<!DOCTYPE svg PUBLIC "-//W3C//DTD SVG 1.1//EN" "http://www.w3.org/Graphics/SVG/1.1/DTD/svg11.dtd">
<svg version="1.1" xmlns="http://www.w3.org/2000/svg" xmlns:xlink="http://www.w3.org/1999/xlink" x="0px" y="0px" width="522px"
	 height="219.8px" viewBox="0 0 522 219.8" enable-background="new 0 0 522 219.8" xml:space="preserve">
<g id="レイヤー_1">
</g>
<g id="title">
</g>
<g id="mori">
	<path fill="#FFDD58" d="M134.6,79.5c1.5-3.1,2.4-6.7,2.4-10.4c0-12.8-10.2-23.3-22.8-23.3c-0.2,0-0.3,0-0.5,0
		c-0.1-13-10.4-23.5-23.1-23.5c-12.7,0-23,10.5-23.1,23.5c-12.3,0.4-22.1,10.6-22.1,23.2c0,3.6,0.8,7,2.2,10.1
		c-10.3,4.4-17.6,14.8-17.6,26.9c0,16.1,12.8,29.1,28.5,29.1c5.1,0,9.9-1.4,14.1-3.8c2.4,1.1,5,1.9,7.7,2.5
		c-0.2,9.1-2.2,26.4-12.2,41.4h46.5c0,0-10.9-17.8-12.5-41.3c2.5-0.6,4.9-1.3,7.2-2.2c4,2.2,8.6,3.4,13.4,3.4
		c15.7,0,28.5-13,28.5-29.1C151.4,94.3,144.5,84.1,134.6,79.5z"/>
	<path fill="#FFDD58" d="M235.8,131.5c0-23.5-8-58.5-16.1-58.5s-16.4,35.9-16.4,59.4c0,21.3,6.8,25.3,14.1,25.8c0,5-0.2,17-2.7,29
		h10.4c0,0-2.7-12.6-2.8-29C229.4,157.6,235.8,153.2,235.8,131.5z"/>
	<path fill="#FFDD58" d="M300.6,139.1c0-23.5-8-58.5-16.1-58.5s-16.4,35.9-16.4,59.4c0,21.3,6.8,25,14.1,25.5c0,5-0.2,17.7-2.7,28.7
		h10.4c0,0-2.7-12.3-2.8-28.7C294.2,164.9,300.6,160.8,300.6,139.1z"/>
	<path fill="#FFDD58" d="M363.2,145.5c0-23.5-8-58.5-16.1-58.5c-8.1,0-16.4,35.9-16.4,59.4c0,21.3,6.8,25.3,14.1,25.8
		c0,5-0.2,18-2.7,29h10.4c0,0-2.7-12.6-2.8-29C356.8,171.6,363.2,167.2,363.2,145.5z"/>
	<path fill="#FFDD58" d="M426.9,153.1c0-23.5-8-58.5-16.1-58.5c-8.1,0-16.4,35.9-16.4,59.4c0,21.3,6.8,25.5,14.1,26
		c0,5-0.2,17.2-2.7,29.2h10.4c0,0-2.7-12.8-2.8-29.2C420.5,179.4,426.9,174.8,426.9,153.1z"/>
	<path fill="#FFDD58" d="M492.7,159.6c0-23.5-8-58.5-16.1-58.5s-16.4,35.9-16.4,59.4c0,21.3,6.8,25.2,14.1,25.8
		c0,5-0.2,17.5-2.7,28.9H482c0,0-2.7-12.6-2.8-29C486.3,185.6,492.7,181.3,492.7,159.6z"/>
</g>
<g id="base">
</g>
</svg>
