<?xml version="1.0" encoding="utf-8"?>
<!-- Generator: Adobe Illustrator 16.0.4, SVG Export Plug-In . SVG Version: 6.00 Build 0)  -->
<!DOCTYPE svg PUBLIC "-//W3C//DTD SVG 1.1//EN" "http://www.w3.org/Graphics/SVG/1.1/DTD/svg11.dtd">
<svg version="1.1" xmlns="http://www.w3.org/2000/svg" xmlns:xlink="http://www.w3.org/1999/xlink" x="0px" y="0px" width="148.4px"
	 height="192.3px" viewBox="0 0 148.4 192.3" enable-background="new 0 0 148.4 192.3" xml:space="preserve">
<g id="レイヤー_1">
</g>
<g id="piyo">
	<g>
		<path fill="#FFDD58" d="M74.9,10C37.5,10,10.1,38.3,8.2,71.4c-2.3,39.9,29.6,58.5,66.6,58.5h0.5c37,0,68.9-18.9,66.6-58.8
			C140.1,38,112.7,10,75.4,10H74.9z"/>
		<path fill="#FFDD58" d="M48.9,126.2c0,0-8.9,28.3,15.1,43.5c15.2,9.7,41.8,5.1,52.2-12c-16.3-9.1-18.7-18.6-17.9-31.4L48.9,126.2z
			"/>
		<polygon fill="#FFDD58" points="79.4,174.1 86.7,174.1 82.9,185.4 		"/>
		
			<line fill="#FFDD58" stroke="#FFDD58" stroke-linecap="round" stroke-miterlimit="10" x1="79.6" y1="183.9" x2="83.1" y2="182.2"/>
		
			<line fill="#FFDD58" stroke="#FFDD58" stroke-linecap="round" stroke-miterlimit="10" x1="83.4" y1="182.3" x2="85.6" y2="184.9"/>
		
			<line fill="#FFDD58" stroke="#FFDD58" stroke-linecap="round" stroke-miterlimit="10" x1="82.7" y1="183.2" x2="82.1" y2="186.6"/>
		<path fill="#FF7E50" d="M90.2,133.5c1.1,7.2,5.6,12,9.1,15.9c-4.3,1.9-11.7,0.7-15-3.6"/>
		<g>
			<path fill="#644F2C" d="M36.9,63c-2.2-1.1-2.8-3.5-3.3-4.4c-0.8-1.3-0.8-3-1.4-4.1c1.1,2.7,3.9,5,6.4,6.1"/>
			<path fill="#644F2C" d="M48.3,65.7c0,3.8-2.9,6.9-6.5,6.9c-3.6,0-6.5-3.1-6.5-6.9c0-3.8,2.9-6.9,6.5-6.9
				C45.4,58.8,48.3,61.9,48.3,65.7z"/>
		</g>
		<polygon fill="#644F2C" points="82.3,73.9 77.5,78.8 73,73.9 77.5,69 		"/>
		<g>
			<path fill="#644F2C" d="M117.2,63c2.2-1.1,2.8-3.5,3.3-4.4c0.8-1.3,0.8-3,1.4-4.1c-1.1,2.7-3.9,5-6.4,6.1"/>
			<path fill="#644F2C" d="M105.8,65.7c0,3.8,2.9,6.9,6.5,6.9c3.6,0,6.5-3.1,6.5-6.9c0-3.8-2.9-6.9-6.5-6.9
				C108.7,58.8,105.8,61.9,105.8,65.7z"/>
		</g>
		<g id="うぶげ_1_">
			<line fill="#FFDD58" stroke="#FFDD58" stroke-miterlimit="10" x1="69.3" y1="6.6" x2="71.1" y2="12"/>
			<line fill="#FFDD58" stroke="#FFDD58" stroke-miterlimit="10" x1="85.7" y1="6.7" x2="84" y2="12.1"/>
			<line fill="#FFDD58" stroke="#FFDD58" stroke-miterlimit="10" x1="77.7" y1="5.4" x2="77.6" y2="11.1"/>
		</g>
		<path fill="#FF7E50" d="M16.6,81.5c-2.9,0-5.6,0.9-7.8,2.5c0,0.8,0.1,1.6,0.2,2.4c1.9,9.8,6.3,17.8,12.4,24.2
			c5.5-2.1,9.4-7.5,9.4-14.1C30.8,88.2,24.4,81.5,16.6,81.5z"/>
		<path fill="#FF7E50" d="M120.9,106.6c1.6,2.6,3.8,4.4,6.2,5.5c0.6-0.5,1.2-1,1.8-1.5c6.7-7.1,10.6-15.3,12.2-24.3
			c-4.7-3.7-11.1-4.2-16.3-0.6C118.4,90.3,116.6,99.6,120.9,106.6z"/>
	</g>
</g>
</svg>
