<?xml version="1.0" encoding="utf-8"?>
<!-- Generator: Adobe Illustrator 16.0.4, SVG Export Plug-In . SVG Version: 6.00 Build 0)  -->
<!DOCTYPE svg PUBLIC "-//W3C//DTD SVG 1.1//EN" "http://www.w3.org/Graphics/SVG/1.1/DTD/svg11.dtd">
<svg version="1.1" xmlns="http://www.w3.org/2000/svg" xmlns:xlink="http://www.w3.org/1999/xlink" x="0px" y="0px" width="381.2px"
	 height="58.2px" viewBox="0 0 381.2 58.2" enable-background="new 0 0 381.2 58.2" xml:space="preserve">
<g id="レイヤー_1">
</g>
<g id="title">
	<g>
		<path fill="#8AAFE8" d="M19.8,50V21.2h3.7l1.3,1.7c1-0.8,2.1-1.4,3.2-1.8c1.1-0.4,2.3-0.6,3.6-0.6c3.2,0,5.6,1,7.2,2.9
			c1.6,2,2.4,4.4,2.4,7.4c0,3-0.8,5.5-2.4,7.6c-1.6,2.1-4.1,3.1-7.6,3.1c-0.7,0-1.3-0.1-2-0.3c-0.7-0.2-1.3-0.4-1.9-0.7v9L19.8,50z"
			/>
		<path fill="#FFDD58" d="M33.4,30.9c0-1.2-0.3-2.2-1-3.1c-0.6-0.9-1.6-1.3-2.8-1.3c-0.5,0-1,0.1-1.4,0.2c-0.4,0.1-0.8,0.3-1.1,0.5
			v7c0.4,0.4,0.9,0.6,1.4,0.9c0.6,0.2,1.1,0.3,1.6,0.3c1.1,0,1.9-0.5,2.4-1.5C33.2,32.9,33.4,31.9,33.4,30.9z"/>
		<rect x="47.9" y="21.2" fill="#8AAFE8" width="7.5" height="19.9"/>
		<path fill="#8AAFE8" d="M70.7,34.6V41h-7.5V12.6l7.5-0.5v14.7l7.4-6.3l4.5,5.1l-5.5,4.1L84.1,41h-8L72,33.7L70.7,34.6z"/>
		<path fill="#8AAFE8" d="M104.5,39.3c-0.8,0.5-1.9,1-3.3,1.6s-2.8,0.9-4.5,0.9c-2.8,0-4.8-0.8-5.9-2.4c-1.1-1.6-1.7-3.5-1.7-5.9
			V21.2h7.5v12.1c0,0.8,0.2,1.4,0.6,1.8c0.4,0.4,0.9,0.6,1.6,0.6c0.4,0,1-0.1,1.6-0.4c0.7-0.2,1.3-0.5,1.9-0.8V21.2h7.5V41h-3.7
			L104.5,39.3z"/>
		<path fill="#8AAFE8" d="M132.1,27.6c-0.8-0.4-1.5-0.7-2-0.8c-0.6-0.2-1.2-0.2-1.9-0.2c-1,0-1.9,0.4-2.7,1.2
			c-0.8,0.8-1.2,1.9-1.2,3.4c0,1.4,0.4,2.5,1.2,3.2c0.8,0.7,1.7,1.1,2.7,1.1c0.7,0,1.3-0.1,1.9-0.2c0.6-0.2,1.3-0.4,2.1-0.8l2.1,5.1
			c-1.1,0.9-2.4,1.5-3.6,1.7c-1.3,0.2-2.3,0.3-3.2,0.3c-3.2,0-5.8-0.9-7.8-2.7c-2-1.8-3-4.3-3-7.7c0-3.3,1-5.9,3-7.8
			c2-1.9,4.6-2.8,7.8-2.8c0.8,0,1.9,0.1,3.2,0.3c1.3,0.2,2.5,0.8,3.6,1.7L132.1,27.6z"/>
		<path fill="#8AAFE8" d="M140.8,41V12.6l7.5-0.5v9.7c0.8-0.4,1.7-0.7,2.8-0.9c1-0.3,2-0.4,3-0.4c2.8,0,4.8,0.8,6,2.4
			c1.2,1.6,1.8,3.5,1.8,5.9V41h-7.5V28.9c0-0.8-0.2-1.4-0.7-1.8c-0.5-0.4-1-0.6-1.7-0.6c-0.5,0-1.1,0.1-1.8,0.4
			c-0.7,0.2-1.4,0.5-2,0.8V41H140.8z"/>
		<rect x="169.4" y="21.2" fill="#8AAFE8" width="7.5" height="19.9"/>
		<path fill="#8AAFE8" d="M202.2,22.9c0.8-0.5,2-1,3.4-1.6c1.4-0.6,2.9-0.9,4.6-0.9c2.8,0,4.8,0.8,6,2.4c1.2,1.6,1.8,3.5,1.8,5.9V41
			h-7.5V28.9c0-0.8-0.2-1.4-0.7-1.8c-0.5-0.4-1-0.6-1.7-0.6c-0.5,0-1.1,0.1-1.8,0.4c-0.7,0.2-1.4,0.5-2,0.8V41h-7.5V21.2h3.7
			L202.2,22.9z"/>
		<path fill="#8AAFE8" d="M224.3,31c0-3.3,1.1-5.9,3.3-7.8c2.2-1.8,4.9-2.8,8-2.8c3.3,0,6,0.9,8.1,2.7c2.1,1.8,3.2,4.5,3.2,8
			c0,3.3-1.1,5.9-3.3,7.6c-2.2,1.8-4.9,2.6-8.1,2.6s-5.8-0.9-7.9-2.6C225.4,37.2,224.3,34.5,224.3,31z"/>
		<path fill="#FFDD58" d="M232,31c0,1.3,0.3,2.4,0.9,3.2c0.6,0.8,1.5,1.2,2.6,1.2c1.2,0,2.1-0.4,2.7-1.1c0.6-0.7,0.9-1.8,0.9-3.2
			c0-1.3-0.3-2.4-0.9-3.3c-0.6-0.9-1.5-1.3-2.6-1.3c-1.2,0-2.1,0.4-2.7,1.2C232.3,28.5,232,29.6,232,31z"/>
		<path fill="#8AAFE8" d="M284.1,22.7c0.8-0.5,1.8-1,3.1-1.5c1.2-0.5,2.6-0.8,4.2-0.8c2.6,0,4.5,0.8,5.7,2.4
			c1.2,1.6,1.8,3.5,1.8,5.9V41h-7.5V28.9c0-0.8-0.2-1.4-0.6-1.8c-0.4-0.4-0.9-0.6-1.4-0.6c-0.5,0-1,0.1-1.6,0.4
			c-0.6,0.3-1.2,0.5-1.8,0.8c0,0.2,0,0.3,0,0.5s0,0.3,0,0.5V41h-7.5V28.9c0-0.8-0.2-1.4-0.6-1.8c-0.4-0.4-0.9-0.6-1.4-0.6
			c-0.4,0-0.9,0.1-1.5,0.4s-1.2,0.5-1.8,0.8V41h-7.5V21.2h3.7l1.6,1.7c0.8-0.5,1.9-1,3.1-1.6c1.3-0.6,2.7-0.9,4.4-0.9
			c1.3,0,2.3,0.2,3.3,0.6C282.7,21.5,283.5,22,284.1,22.7z"/>
		<path fill="#8AAFE8" d="M305,31c0-3.3,1.1-5.9,3.3-7.8c2.2-1.8,4.9-2.8,8-2.8c3.3,0,6,0.9,8.1,2.7c2.1,1.8,3.2,4.5,3.2,8
			c0,3.3-1.1,5.9-3.3,7.6c-2.2,1.8-4.9,2.6-8.1,2.6s-5.8-0.9-7.9-2.6C306.1,37.2,305,34.5,305,31z"/>
		<path fill="#FFDD58" d="M312.7,31c0,1.3,0.3,2.4,0.9,3.2c0.6,0.8,1.5,1.2,2.6,1.2c1.2,0,2.1-0.4,2.7-1.1s0.9-1.8,0.9-3.2
			c0-1.3-0.3-2.4-0.9-3.3c-0.6-0.9-1.5-1.3-2.6-1.3c-1.2,0-2.1,0.4-2.7,1.2C313,28.5,312.7,29.6,312.7,31z"/>
		<path fill="#8AAFE8" d="M334.3,41V21.2h3.7l1.8,2c0.8-0.5,1.8-1,2.9-1.4c1.1-0.4,2.2-0.6,3.4-0.6l1.5,6c-1,0-2,0.1-3,0.4
			c-1,0.3-2,0.7-2.8,1.4V41H334.3z"/>
		<rect x="353.5" y="21.2" fill="#8AAFE8" width="7.5" height="19.9"/>
		<path fill="#8AAFE8" d="M173.1,18.8c-1.1,0-2-0.4-2.8-1.2c-0.8-0.8-1.2-1.7-1.2-2.8c0-1.1,0.4-2.1,1.2-2.9
			c0.8-0.8,1.7-1.2,2.8-1.2c1.1,0,2.1,0.4,2.9,1.2c0.8,0.8,1.2,1.8,1.2,2.9c0,1.1-0.4,2-1.2,2.8C175.2,18.4,174.2,18.8,173.1,18.8z"
			/>
		<path fill="#FFDD58" d="M52.1,17.3c0,0,3.2-1.4,5.1-3.7c1.2-1.5,1-3.6-0.6-4.5c-2.5-1.4-4.5,2.5-4.5,2.5l-0.1,0.1L52,11.6
			c0,0-1.9-3.9-4.5-2.5c-1.6,0.9-1.8,3-0.6,4.5c1.9,2.4,5,3.7,5,3.7H52.1L52.1,17.3z"/>
		<path fill="#8AAFE8" d="M356.9,17.3c0,0,3.2-1.4,5.1-3.7c1.2-1.5,1-3.6-0.6-4.5c-2.5-1.4-4.5,2.5-4.5,2.5l-0.1,0.1l-0.1-0.1
			c0,0-1.9-3.9-4.5-2.5c-1.6,0.9-1.8,3-0.6,4.5c1.9,2.4,5,3.7,5,3.7H356.9L356.9,17.3z"/>
	</g>
</g>
</svg>
