<?xml version="1.0" encoding="utf-8"?>
<!-- Generator: Adobe Illustrator 16.0.4, SVG Export Plug-In . SVG Version: 6.00 Build 0)  -->
<!DOCTYPE svg PUBLIC "-//W3C//DTD SVG 1.1//EN" "http://www.w3.org/Graphics/SVG/1.1/DTD/svg11.dtd">
<svg version="1.1" xmlns="http://www.w3.org/2000/svg" xmlns:xlink="http://www.w3.org/1999/xlink" x="0px" y="0px" width="284px"
	 height="296px" viewBox="0 0 284 296" enable-background="new 0 0 284 296" xml:space="preserve">
<g id="レイヤー_1">
</g>
<g id="content">
</g>
<g id="piyo">
	<g>
		<path fill="#FFDD58" d="M145.6,24.6c-56.3,0-97.6,42.8-100.5,92.6c-3.4,60.1,44.7,88.2,100.5,88.2h0.8
			c55.8,0,103.9-28.5,100.5-88.6c-2.9-49.9-44.2-92.2-100.5-92.2H145.6z"/>
		<g>
			<polygon fill="#FFDD58" points="137.3,268.4 148.2,268.4 142.6,285.5 			"/>
			
				<line fill="#FFDD58" stroke="#FFDD58" stroke-linecap="round" stroke-miterlimit="10" x1="138.1" y1="286" x2="142.5" y2="282.1"/>
			
				<line fill="#FFDD58" stroke="#FFDD58" stroke-linecap="round" stroke-miterlimit="10" x1="143" y1="282.1" x2="147.3" y2="284.9"/>
			
				<line fill="#FFDD58" stroke="#FFDD58" stroke-linecap="round" stroke-miterlimit="10" x1="142.4" y1="283.7" x2="142.9" y2="288.9"/>
		</g>
		<polygon fill="#644F2C" points="156.8,121 149.5,128.5 142.8,121 149.5,113.6 		"/>
		<g id="うぶげ_1_">
			<line fill="#FFDD58" stroke="#FFDD58" stroke-miterlimit="10" x1="137.3" y1="19.5" x2="139.9" y2="27.6"/>
			<line fill="#FFDD58" stroke="#FFDD58" stroke-miterlimit="10" x1="161.9" y1="19.6" x2="159.4" y2="27.8"/>
			<line fill="#FFDD58" stroke="#FFDD58" stroke-miterlimit="10" x1="149.9" y1="17.8" x2="149.8" y2="26.4"/>
		</g>
		<path fill="#FF7E50" d="M57.7,132.4c-4.3,0-8.4,1.4-11.8,3.8c0,1.2,0.2,2.4,0.2,3.6c2.9,14.7,9.4,26.9,18.8,36.5
			c8.2-3.2,14.2-11.4,14.2-21.2C79.2,142.6,69.6,132.4,57.7,132.4z"/>
		<path fill="#FF7E50" d="M215,170.3c2.4,3.8,5.7,6.6,9.4,8.3c1-0.7,1.8-1.5,2.7-2.2c10-10.6,16-23.1,18.5-36.7
			c-7-5.6-16.8-6.3-24.5-0.9C211.2,145.7,208.5,159.8,215,170.3z"/>
		<path fill="#FFDD58" d="M195.9,234.7c0,32.9-33.4,38.5-47.4,38.7c-16.7,0.2-47.4-5.8-47.4-38.7c0-32.9,21.2-80.5,47.4-80.5
			S195.9,201.8,195.9,234.7z"/>
		<path fill="#FF7E50" d="M129.3,218.2c7-0.7,11.8-4.7,15.8-7.8c1.6,4.2,0,11.3-4.3,14.2"/>
		<path fill="#FF7E50" d="M168.1,218.2c-7-0.7-11.8-4.7-15.8-7.8c-1.6,4.2,0,11.3,4.3,14.2"/>
		<g>
			<polygon fill="#FFDD58" points="154.4,268.7 165.3,268.7 159.6,285.8 			"/>
			
				<line fill="#FFDD58" stroke="#FFDD58" stroke-linecap="round" stroke-miterlimit="10" x1="155.2" y1="286.3" x2="159.6" y2="282.4"/>
			
				<line fill="#FFDD58" stroke="#FFDD58" stroke-linecap="round" stroke-miterlimit="10" x1="160.1" y1="282.4" x2="164.3" y2="285.3"/>
			<line fill="#FFDD58" stroke="#FFDD58" stroke-linecap="round" stroke-miterlimit="10" x1="159.5" y1="284" x2="160" y2="289.2"/>
		</g>
		<g>
			
				<polyline fill="none" stroke="#644F2C" stroke-width="6" stroke-linecap="round" stroke-linejoin="round" stroke-miterlimit="10" points="
				198.7,101.3 184.9,111.4 198.7,119.7 			"/>
			
				<line fill="none" stroke="#644F2C" stroke-width="6" stroke-linecap="round" stroke-linejoin="round" stroke-miterlimit="10" x1="185" y1="111" x2="203" y2="111"/>
		</g>
		<path fill="none" stroke="#644F2C" stroke-width="2" stroke-linecap="round" stroke-linejoin="round" stroke-miterlimit="10" d="
			M171.7,66.3c0,0,1.8,6.8,13.2,6.8"/>
		<g>
			
				<polyline fill="none" stroke="#644F2C" stroke-width="6" stroke-linecap="round" stroke-linejoin="round" stroke-miterlimit="10" points="
				96.2,101.3 110,111.4 96.2,119.7 			"/>
			
				<line fill="none" stroke="#644F2C" stroke-width="6" stroke-linecap="round" stroke-linejoin="round" stroke-miterlimit="10" x1="110" y1="111" x2="92" y2="111"/>
		</g>
		<path fill="none" stroke="#644F2C" stroke-width="2" stroke-linecap="round" stroke-linejoin="round" stroke-miterlimit="10" d="
			M122.9,66.3c0,0-1.8,6.8-13.2,6.8"/>
	</g>
	<path fill="#8AAFE8" stroke="#8AAFE8" stroke-miterlimit="10" d="M245.6,24.2c4-5.4,7.8-5.1,11-2.8s4.5,6,0.5,11.3
		c-4,5.4-15,8.1-15,8.1S241.6,29.6,245.6,24.2z"/>
	<path fill="#8AAFE8" stroke="#8AAFE8" stroke-miterlimit="10" d="M263.5,44.7c6.6-1.2,9.2,1.5,10,5.4c0.7,3.9-0.8,7.4-7.3,8.6
		c-6.6,1.2-16.5-4.2-16.5-4.2S256.9,45.9,263.5,44.7z"/>
	<g>
		<path fill="#8AAFE8" stroke="#8AAFE8" stroke-miterlimit="10" d="M16.9,78.7c-6.6,1-9.2-1.8-9.8-5.7c-0.6-3.9,1-7.4,7.6-8.4
			c6.6-1,16.4,4.7,16.4,4.7S23.5,77.7,16.9,78.7z"/>
		<path fill="#8AAFE8" stroke="#8AAFE8" stroke-miterlimit="10" d="M26.2,50.9c-5-4.4-4.5-8.2-1.9-11.2c2.6-3,6.3-4,11.3,0.5
			c5,4.4,6.9,15.6,6.9,15.6S31.2,55.3,26.2,50.9z"/>
		<path fill="#8AAFE8" stroke="#8AAFE8" stroke-miterlimit="10" d="M46.4,27.1c-0.2-6.7,2.9-8.9,6.9-9c3.9-0.1,7.2,1.9,7.4,8.6
			c0.2,6.7-6.7,15.7-6.7,15.7S46.6,33.8,46.4,27.1z"/>
	</g>
</g>
</svg>
