<?xml version="1.0" encoding="utf-8"?>
<!-- Generator: Adobe Illustrator 16.0.4, SVG Export Plug-In . SVG Version: 6.00 Build 0)  -->
<!DOCTYPE svg PUBLIC "-//W3C//DTD SVG 1.1//EN" "http://www.w3.org/Graphics/SVG/1.1/DTD/svg11.dtd">
<svg version="1.1" xmlns="http://www.w3.org/2000/svg" xmlns:xlink="http://www.w3.org/1999/xlink" x="0px" y="0px" width="1024px"
	 height="400px" viewBox="0 0 1024 400" enable-background="new 0 0 1024 400" xml:space="preserve">
<g id="back">
	<rect fill="#8AAFE8" width="1024" height="400"/>
</g>
<g id="cloud">
	<path opacity="0.2" fill="#FFFFFF" stroke="#FFFFFF" stroke-miterlimit="10" d="M84,87c3.6-38,72.5-40.5,68.3,1.7
		c24.4,1.5,45.6,7.9,51.3,36.6c3.5,17.5-7.1,36.1-27.3,38c1.2,29.7-15.5,34.6-43,35.7c-24.2,0.9-33-2.2-43.8-23.8
		c-20.8,24.1-51.5-3-51.7-27.8C37.7,122.3,59.5,85.4,84,87"/>
	<path opacity="0.2" fill="#FFFFFF" stroke="#FFFFFF" stroke-miterlimit="10" d="M639,123c-4.1-19.4,25.1-29.1,40.3-23.8
		c20.9,7.3,22.9,35.4,17.9,53.4c16.5,2.3,24.2,21.6,18.4,36.4c-9.8,25.1-40.7,19.6-58.7,27.8c-6.1,2.8-10,12.9-17.8,16.7
		c-11.2,5.5-23.5,4.3-34.2-0.6c-15.8-7.1-28.6-19.8-26.2-37.7c-43.2,1-40.1-70-8.2-84.8C596,98.7,622.1,102.9,639,123"/>
	<path opacity="0.2" fill="#FFFFFF" stroke="#FFFFFF" stroke-miterlimit="10" d="M369,59c3.4-14.6,22.6-19.1,31.8-8.7
		c3.6-11,25.9-11.4,30.7-1.1c8.4-2.5,22.8-4,27.9,4.3c4.7,7.5-1.9,14.2-2.8,20.5c-2.1,15-0.5,22.5-13.5,32.5
		c-6.4,5-15.2,10.1-22.5,5c-5.9,25.8-32.7,24.4-50.1,13.1c-3.5-2.2-2.8-6.6-6.8-8c-1.2-0.4-9.1,2.7-11.7,2.5
		c-5.5-0.5-14-4.6-17.9-9.2C309.8,80.5,343.8,58.4,369,59"/>
	<path opacity="0.2" fill="#FFFFFF" stroke="#FFFFFF" stroke-miterlimit="10" d="M926.6,81.9c6.4,24.8-14.5,39.4-33.6,50.1
		c-39.8,22.3-41.7-13-41.5-12.5c0,0-25.7-23.8,5.2-37.8c-2.9-26,20.8-29.8,36.3-14.7C893,67,921.9,63.9,926.6,81.9z"/>
</g>
</svg>
